<?xml version="1.0" encoding="utf-8"?>
<!-- Generator: Adobe Illustrator 26.0.2, SVG Export Plug-In . SVG Version: 6.00 Build 0)  -->
<svg version="1.1" id="Layer_1" xmlns="http://www.w3.org/2000/svg" xmlns:xlink="http://www.w3.org/1999/xlink" x="0px" y="0px"
	 viewBox="0 0 512 80" style="enable-background:new 0 0 512 80;" xml:space="preserve">
<style type="text/css">
	.st0{fill:#373737;}
</style>
<path class="st0" d="M15.6,18.9v-1.4l4.1,0.3c0.6,0,1.3,0,2.1,0l3-0.1c1.4,1.8,3.1,3.7,5,5.7s4.1,4.2,6.4,6.5l4,3.9L61,53.5
	c0.2-3,0.3-7.4,0.3-13.4v-6.8c0-3.6-0.1-6.4-0.3-8.2c-0.1-1.4-0.4-2.8-1-4.1c-0.4-0.8-1.1-1.4-1.9-1.8c-1.3-0.4-2.6-0.7-4-0.9l0.4-1
	c0.6-0.1,1.2-0.1,1.7-0.1c0.7,0,1.5,0,2.2,0s1.6,0.1,2.6,0.2c0.6,0,1.2,0.1,1.8,0.1h1.5l4.5-0.1l0.1,1.2c-1.1,0.1-2.1,0.4-3,1
	c-0.7,0.6-1.1,1.4-1.3,2.2c-0.6,3.8-0.9,7.5-0.9,11.3c-0.2,5.6-0.3,11-0.3,16.1c0,2,0,3.9,0,5.8s0.1,3.5,0.1,4.9s0.1,2.8,0.2,4.1
	h-1.3c-1.6-3.5-6.5-9.1-14.7-16.7L34.4,35c-0.5-0.3-1.5-1.3-3.3-2.9s-3.9-3.6-6.6-6.1L24,47.7c-0.2,3.1-0.1,6.2,0.3,9.3
	c0.3,1.8,1,3,2,3.5c1.9,0.8,3.9,1.4,5.9,1.7c0,0.5,0,0.9-0.1,1.3c-0.4,0-1.5,0-3.4-0.1s-3.1-0.2-3.5-0.2s-1.7,0-3.9,0.2l-1.5,0.1
	l-2.5,0.2c-0.3,0-0.5-0.1-0.7-0.2c-0.2-0.2-0.3-0.4-0.2-0.7c0-0.3,0.1-0.6,0.2-0.6c0.2-0.1,0.5-0.2,0.8-0.2c0.8-0.1,1.5-0.2,2.2-0.6
	c0.5-0.3,0.9-0.8,1.1-1.4c0.4-1.1,0.6-2.3,0.6-3.5c0.1-1.6,0.2-3.6,0.2-6.1l0.2-16.9c0.1-2.7,0-5.5-0.2-8.2
	c-0.1-1.6-0.7-3.1-1.6-4.4C18.9,19.7,17.3,18.9,15.6,18.9z"/>
<path class="st0" d="M73,50c0-1.9,0.4-3.9,1.2-5.6c0.7-1.7,1.8-3.1,3.2-4.4c1.4-1.2,3-2.2,4.7-2.8c1.8-0.7,3.8-1,5.8-1
	c3.6,0,7.1,1.4,9.7,3.8c1.3,1.2,2.3,2.7,3,4.3c0.7,1.7,1.1,3.5,1.1,5.3c0,2.4-0.6,4.8-1.8,6.9c-1.2,2.1-2.9,3.9-5,5.2
	c-2.2,1.3-4.8,2-7.4,2c-2.2,0-4.4-0.5-6.5-1.4c-2.2-0.9-4.2-2.5-5.6-4.4C73.7,55.5,72.9,52.8,73,50z M77.6,48.1
	c0,2.2,0.5,4.5,1.3,6.5s2,3.9,3.7,5.3c1.4,1.3,3.3,2.1,5.2,2.1c1.6,0,3.2-0.5,4.5-1.4c1.4-1,2.5-2.3,3.2-3.9
	c0.8-1.8,1.2-3.7,1.2-5.7c0-2.2-0.5-4.3-1.4-6.3s-2.2-3.7-3.8-5c-1.5-1.2-3.5-1.9-5.4-1.9c-1.5,0-3,0.4-4.3,1.3
	c-1.3,0.9-2.4,2.2-3,3.6C78,44.5,77.6,46.3,77.6,48.1z"/>
<path class="st0" d="M105.5,62.8l-0.1-1c1-0.1,1.9-0.4,2.8-0.7c0.5-0.2,0.9-0.5,1.2-0.9c0.2-0.4,0.3-0.9,0.4-1.3
	c0.2-1.6,0.3-3.2,0.4-4.8c0.1-1.9,0.1-3.8,0.1-5.7c0-1.8-0.1-3.7-0.3-5.5c0-0.8-0.5-1.5-1.1-1.9c-1-0.4-2.1-0.6-3.2-0.7
	c0-0.2,0-0.5-0.1-0.7c1.4-0.4,2.7-0.9,4.1-1.5c0.9-0.4,1.8-0.8,2.7-1.3c0.5-0.3,1-0.5,1.6-0.7c0.4,0,0.6,0.3,0.7,1
	c0.1,1.1,0.2,2.3,0.1,3.4c2-1.2,4.2-2.2,6.4-3.1c1.5-0.6,3.2-0.9,4.8-0.9c2.3,0,3.9,0.5,5,1.5c1,1,1.7,2.3,1.9,3.7
	c0.3,1.9,0.4,3.7,0.4,5.6v8.4c0,3.3,0.1,5.1,0.5,5.4c0.6,0.3,1.2,0.5,1.8,0.6c1,0.2,1.6,0.4,1.8,0.5l0.1,1.1c-2-0.3-4.1-0.4-6.1-0.4
	s-4.4,0.1-7.1,0.4v-1c2.1-0.4,3.5-1.1,4-2c0.5-1.6,0.7-3.3,0.7-4.9c0.1-2.5,0.2-4.5,0.2-5.8c0-1.7-0.1-3.4-0.3-5.1
	c-0.1-1.3-0.7-2.4-1.5-3.4c-1-1-2.3-1.5-3.7-1.4c-1.2,0.1-2.3,0.2-3.4,0.5c-1.9,0.4-3.7,1.1-5.4,2.1l-0.2,9.4c0,4,0,6.6,0.1,8
	c0,0.4,0.1,0.9,0.3,1.3c0.3,0.4,0.7,0.6,1.2,0.8c1,0.3,2.1,0.5,3.1,0.6l-0.1,1.1l-2.2-0.2c-1-0.1-2.2-0.1-3.7-0.2h-7.9L105.5,62.8
	L105.5,62.8z"/>
<path class="st0" d="M140.7,51.6v-3.8h17.5v3.8H140.7z"/>
<path class="st0" d="M161.7,18.7v-1.1l4.6-0.1l6.4,0.1c1.9,0,3.5,0.1,4.7,0.1l2.1,0.1c6.6,0,12-0.2,16.1-0.5
	c-0.1,1.3-0.2,2.9-0.2,4.6s0,3.2,0,4.3H194c0-1.4-0.3-2.8-0.9-4.1c-0.5-0.9-1.6-1.5-3.4-2c-2.9-0.6-5.8-0.8-8.7-0.7
	c-2.7-0.1-5.4,0.1-8,0.5c-0.2,2.6-0.3,6.9-0.3,13v5.6c2.8,0.2,5.5,0.4,8,0.4c2.3,0.1,4.7-0.1,7-0.4c1.4-0.2,2.2-0.6,2.5-1.2
	c0.4-0.9,0.5-1.9,0.5-2.9c0.5,0,0.9,0,1.4-0.1c0.1,1.5,0.1,3,0.1,4.3c0,2.5,0,4.9-0.1,7.4h-1.4c0-2.4-0.2-3.7-0.6-3.9
	c-1.2-0.6-2.5-0.9-3.8-1c-2.4-0.3-4.8-0.5-7.2-0.5c-2.8,0-4.9,0.1-6.3,0.2c-0.1,4.4-0.1,8.4-0.1,12c0,2.3,0.1,3.9,0.2,4.8
	c0.1,0.8,0.3,1.6,0.8,2.3c0.5,0.6,1.2,1.1,2,1.3c1.5,0.4,3,0.6,4.6,0.8v1.3c-3-0.2-5.6-0.4-7.6-0.4H169c-1.9,0-4.1,0.1-6.5,0.3
	l0.1-1.2c1.1-0.1,2.2-0.5,3.1-1.1c0.6-0.5,1-1.2,1.1-2c0.5-2.8,0.8-9.3,0.8-19.3c0-1.3,0-2.7,0-4s0-3.1-0.1-5.3s-0.1-4.2-0.3-5.9
	c0-1.2-0.2-2.4-0.6-3.5c-0.2-0.8-0.8-1.4-1.6-1.6C164,19,162.9,18.8,161.7,18.7z"/>
<path class="st0" d="M198.7,63.4v-1.1c1.4-0.1,2.7-0.7,3.7-1.6c0.8-1,1.3-2.2,1.4-3.5c0.1-0.8,0.2-2.6,0.4-5.5s0.3-6.2,0.4-9.9
	s0.2-7.1,0.2-10c0-6.2-0.3-9.8-1-10.6c-0.6-0.7-1.5-1-2.4-0.9c-0.2,0-0.4,0-0.7,0l-0.5,0.1l-0.5,0.1v-1.1c3.3-1.3,6.5-2.9,9.5-4.8
	h1.1c-0.7,2.8-1.2,7.8-1.4,15.1l-0.3,17c0,8,0.2,12.5,0.5,13.5c0.2,0.6,0.9,1.1,2.1,1.4c1.1,0.3,2.1,0.5,3.2,0.6v1.3
	c-4.6-0.3-7.7-0.5-9.3-0.5C203.1,63.1,200.9,63.2,198.7,63.4z"/>
<path class="st0" d="M240.1,44.9l-17.7,3.8c0.1,1.7,0.3,3.5,0.6,5.1c0.4,1.3,1,2.6,1.9,3.7c1.5,2.2,3.9,3.5,6.6,3.6
	c1.2,0,2.3-0.2,3.4-0.6c1.4-0.5,2.8-1.3,4-2.2l0.6,0.8c-4.1,3-7.7,4.4-10.9,4.4c-3.1,0.1-6.1-1.3-7.9-3.8c-1.9-2.5-2.8-5.6-2.8-8.8
	c-0.1-3,0.6-5.9,2.2-8.4c1.2-2,2.9-3.6,4.8-4.8c1.2-0.8,2.6-1.3,4-1.5c1.1,0,2.2,0.2,3.3,0.5c1.3,0.4,2.4,1.1,3.4,2
	c1.2,1.1,2.1,2.5,2.7,4c0.3,0.6,0.9,1,1.6,0.9L240.1,44.9z M222.5,47.3l4.6-1c0.7-0.2,1.4-0.4,2.1-0.6c1.2-0.3,2.1-0.5,2.5-0.5
	c1.2-0.3,2-0.5,2.3-0.6s0.5-0.3,0.5-0.6c-0.1-0.7-0.4-1.4-0.9-1.9c-0.6-1-1.5-1.8-2.4-2.5c-1.1-0.8-2.4-1.2-3.7-1.1
	c-1.7,0-3.3,1.1-3.8,2.8C223.1,43.2,222.7,45.2,222.5,47.3z"/>
<path class="st0" d="M243.5,55.3l1.2,0.1c0.2,0.8,0.6,1.6,1.1,2.2c0.9,1.1,1.9,2,3.1,2.7c1.3,0.8,2.7,1.2,4.2,1.2
	c1.1,0,2.3-0.2,3.3-0.7c1.1-0.5,1.7-1.5,1.7-3.1c0.1-1.5-0.6-3-1.7-4c-1.2-1-2.5-1.9-3.9-2.6l-2.7-1.2c-1.4-0.7-2.6-1.5-3.7-2.5
	c-0.9-0.9-1.4-2.1-1.4-3.4c0.1-1.2,0.5-2.4,1.2-3.4c0.9-1.3,2-2.3,3.4-3c1.5-0.8,3.3-1.2,5-1.2c1.9,0.1,3.8,0.2,5.7,0.5l1.2,6H260
	c-0.3-0.9-0.8-1.7-1.5-2.3c-0.8-0.8-1.7-1.4-2.7-1.9c-0.8-0.5-1.7-0.7-2.6-0.8c-1.1,0-2.2,0.4-3,1.2s-1.2,1.9-1.2,3
	c0,0.9,0.3,1.7,0.9,2.3c1,0.8,2.1,1.5,3.2,2l2.2,1c1.8,0.8,3.5,1.9,5,3.2c1.4,1.3,2.2,3.2,2.1,5.2c0,0.9-0.2,1.8-0.5,2.6
	s-0.8,1.5-1.5,2c-1.5,1-3.1,1.8-4.9,2.4c-1.3,0.4-2.6,0.5-3.9,0.5c-0.7,0-1.3-0.1-2-0.2c-0.9-0.1-1.5-0.2-1.8-0.3s-1-0.2-1.8-0.5
	l-1.7-0.5c0.1-0.7,0.2-1.3,0.3-2c0-0.8-0.1-1.6-0.3-2.4C244,56.8,243.8,56,243.5,55.3z"/>
<path class="st0" d="M266.3,20.3v-1.4c0.5-0.3,0.9-0.4,1-0.5l6.9-3.3l1.2-0.6l1.2,0.6c-0.5,2.4-0.8,4.9-1,7.3
	c-0.2,2.8-0.3,6.3-0.4,10.6l-0.1,7.1c2.8-1.2,5-2.1,6.8-2.7c1.6-0.5,3.3-0.8,5-0.8c1.9-0.2,3.7,0.6,5,2.1c1.1,1.5,1.7,3.2,1.9,5.1
	c0.3,2.6,0.4,5.2,0.4,7.9c0,0.6,0,1.2,0,1.8s0,1.3,0,2.3s0,1.9-0.1,2.7s0,1.3,0,1.4c-0.1,0.7,0.2,1.5,0.7,2c0.5,0.3,1.9,0.5,4.1,0.5
	l-0.1,1.1h-2.3h-4.4h-3.9c-0.1,0-0.6,0.1-1.5,0.3c-0.2,0-0.4-0.2-0.4-0.5s0.2-0.4,0.6-0.5c0.8-0.1,1.5-0.5,2-1.1
	c0.5-0.8,0.8-1.8,0.9-2.8c0.2-2.1,0.3-4.3,0.2-6.4c0-4.7-0.4-8-1.1-10c-0.8-2-2.5-3-5.2-3c-1.6,0-3.1,0.3-4.6,0.8
	c-1.3,0.4-2.6,0.9-3.8,1.5c0,0.7,0,1.8-0.1,3.3l-0.3,8.5c0,0.5,0,1,0,1.5s0,0.9-0.1,1.5c-0.1,1.5,0.1,3,0.5,4.4
	c0.1,0.4,0.4,0.7,0.9,0.8c1.2,0.3,2.4,0.4,3.6,0.5v1.2c-0.8-0.1-2.4-0.1-5-0.2c-2.6,0-5.4,0.1-8.4,0.4l0.1-1.2c1-0.1,2.1-0.5,3-0.9
	c0.6-0.4,0.9-1,1-1.7c0.2-1.5,0.4-3.1,0.4-4.6c0.1-3.7,0.2-6.9,0.3-9.5l0.1-9.9c0-1,0.1-3.3,0.1-6.7c0-2.3-0.1-4.7-0.4-7
	c-0.3-1.5-0.9-2.3-2-2.3C267.7,19.9,267,20,266.3,20.3z"/>
<path class="st0" d="M311.5,25.3l-1.2-0.3c1.1-3,2.1-5.8,3-8.4c0.4,0.4,0.8,0.7,1.3,1c0.5,0.2,1,0.3,1.5,0.4
	c1.5,0.2,4.9,0.3,10.3,0.3h17.9c0.4,0,1.9,0,4.3-0.1l4.2-0.1c0.7,0,1.3,0,2-0.2c0.4-0.2,0.8-0.5,1.1-0.8c0.2,0.4,0.6,0.7,0.9,0.9
	c-0.9,2.4-1.5,4.8-1.9,7.2l-1.5,0.2c0.1-0.8,0.2-1.8,0.3-3.2c-0.9-0.7-2-1.2-3.2-1.4c-2.3-0.4-4.7-0.6-7-0.5c-2.4,0-3.9,0-4.7,0.1
	c-0.5,0-1,0.1-1.4,0.3c-0.2,0.3-0.4,0.6-0.4,1l-0.2,4.7c0,0.8-0.1,2.8-0.2,6.2c0,0.8,0,3.2-0.1,7s0,7.1-0.1,9.8c0,3.5,0,6,0.1,7.5
	c0,1.1,0.2,2.2,0.6,3.3c0.3,0.7,0.8,1.2,1.5,1.5c1.1,0.3,2.3,0.6,3.4,0.7c1.1,0.1,1.6,0.2,1.6,0.4c0,0.3,0,0.6-0.1,0.8
	c-0.5,0.1-0.9,0.1-1.4,0.1c-1.4-0.1-2.7-0.2-3.8-0.2c-1.6-0.1-2.9-0.2-3.8-0.2c-2.5,0-5,0.2-7.5,0.6c-1.5,0.3-2.3,0.4-2.5,0.4
	c-0.3,0-0.6-0.1-0.8-0.2c-0.2-0.3-0.4-0.6-0.5-0.9c0.3-0.1,1-0.3,2.2-0.6c1.2-0.2,2.4-0.6,3.5-1c0.6-0.2,1.1-0.6,1.4-1.1
	c0.2-0.7,0.3-1.4,0.3-2.1c0-1.3,0.1-2.7,0.3-4c0,0.1,0-1.3,0.1-4.2s0.1-5,0.1-6.3s0-2.7,0-4.4c0-5,0-8.6,0-10.8s-0.1-3.9-0.2-5
	c-0.1-1-0.3-1.9-0.6-2.8c-2-0.2-4.2-0.3-6.7-0.3c-2,0-4,0.1-5.9,0.2c-1.1,0.1-2.2,0.4-3.2,0.8c-0.6,0.3-1.2,0.7-1.6,1.3
	C312.3,23.6,311.9,24.4,311.5,25.3z"/>
<path class="st0" d="M351.4,50c0-1.9,0.4-3.9,1.1-5.6c0.7-1.7,1.8-3.1,3.2-4.4c1.4-1.2,3-2.2,4.7-2.8c1.8-0.7,3.8-1,5.8-1
	c3.6,0,7,1.4,9.6,3.8c1.3,1.2,2.3,2.7,3,4.3c0.7,1.7,1.1,3.5,1.1,5.3c0,2.4-0.6,4.8-1.8,6.9c-1.2,2.1-2.9,3.9-5,5.2
	c-2.2,1.3-4.8,2-7.4,2c-2.2,0-4.4-0.5-6.5-1.4c-2.2-0.9-4.2-2.5-5.6-4.4C352.1,55.5,351.3,52.8,351.4,50z M356.1,48.1
	c0,2.2,0.5,4.5,1.3,6.5s2,3.9,3.6,5.3c1.4,1.3,3.3,2.1,5.2,2.1c1.6,0,3.2-0.5,4.5-1.4c1.4-1,2.5-2.3,3.2-3.9
	c0.8-1.8,1.2-3.7,1.2-5.7c0-2.2-0.5-4.3-1.4-6.3s-2.2-3.7-3.9-5c-1.5-1.3-3.5-1.9-5.4-1.9c-1.5,0-3,0.4-4.3,1.3
	c-1.3,0.9-2.4,2.2-3,3.6C356.4,44.5,356,46.3,356.1,48.1L356.1,48.1z"/>
<path class="st0" d="M383.6,63.3v-1.2c0.8-0.1,1.7-0.2,2.5-0.5c0.5-0.2,0.9-0.5,1.2-1c0.3-0.6,0.5-1.2,0.5-1.8
	c0.2-1.8,0.3-4.5,0.4-8s0.1-7.1,0.2-10.6s0.1-6.3,0.1-8.4c0-5.2-0.2-8.7-0.7-10.4c-0.3-1-0.9-1.5-1.7-1.5c-0.4,0-0.9,0.1-1.2,0.2
	c-0.5,0.2-0.8,0.3-1,0.4l0.1-1.2c0.2-0.1,0.5-0.3,0.9-0.5l1-0.5l1.1-0.5l1.3-0.6c1.5-0.6,2.6-1.1,3.2-1.5c0.6-0.3,1.1-0.7,1.5-1.3
	h1.1c-0.4,1.6-0.6,3.1-0.7,4.8c-0.2,2.3-0.4,5.3-0.5,9s-0.2,6.8-0.2,9.3c0,2.6-0.1,4.2-0.1,4.8l-0.1,4.8c1.1-0.5,2.2-1.2,3.2-1.9
	c1.5-1,3-2.1,4.3-3.4c1.2-1.2,1.9-2.1,1.9-2.8c0.1-0.5-0.2-1-0.7-1.3c-0.6-0.3-1.3-0.4-2-0.5v-1l3.2,0.1c0.7,0,2.2,0.1,4.7,0.1
	c1.2,0,3.1,0,5.9-0.1l-0.1,1.4c-1.4,0.1-2.9,0.4-4.2,1c-1.9,0.9-3.8,2-5.6,3.2L397,46c0.8,0.8,3.8,3.8,9.2,9c1.8,2,3.8,3.7,6,5.3
	c1,0.7,2.2,1.2,3.4,1.4v1.2l-1-0.1l-1-0.1c-0.3,0-0.9,0-1.9,0h-2.8c-2.6,0-4.6,0.1-6.2,0.2v-1.3c0.4-0.1,0.8-0.2,1.2-0.2
	c0.4-0.1,0.8-0.1,1.3-0.2c0.3-0.1,0.5-0.2,0.5-0.3c-0.2-0.6-0.6-1.2-1.1-1.7c-0.8-0.9-1.4-1.6-1.8-2.1c-1.9-2-3.7-3.7-5.3-5.2
	l-2.3-2.1c-0.3-0.3-0.6-0.6-1-0.9c-0.3-0.3-0.6-0.5-1-0.7c-0.4,0-0.6,0.4-0.6,1.2v3.8c0,2.2,0,3.8,0,4.8c0,0.7,0.1,1.4,0.2,2.1
	c0.1,0.4,0.3,0.7,0.6,0.9c1.1,0.4,2.2,0.6,3.4,0.7l-0.1,1.2c-1.5-0.2-3.1-0.3-4.6-0.3C389.4,63,386.6,63.1,383.6,63.3z"/>
<path class="st0" d="M438.8,44.9l-17.7,3.8c0.1,1.7,0.3,3.5,0.7,5.1c0.4,1.3,1,2.6,1.9,3.7c1.5,2.2,3.9,3.5,6.6,3.6
	c1.2,0,2.3-0.2,3.4-0.6c1.4-0.5,2.8-1.2,4-2.2l0.6,0.8c-4.1,3-7.7,4.4-10.9,4.4c-3.1,0.1-6.1-1.3-7.9-3.8c-1.9-2.5-2.9-5.6-2.8-8.8
	c-0.1-3,0.6-5.9,2.2-8.4c1.2-2,2.9-3.7,4.8-4.9c1.2-0.8,2.6-1.3,4.1-1.5c1.1,0,2.2,0.2,3.3,0.5c1.3,0.4,2.4,1.1,3.4,2
	c1.2,1.1,2.1,2.5,2.7,4c0.1,0.3,0.3,0.5,0.6,0.7c0.3,0.1,0.7,0.2,1,0.2L438.8,44.9z M421.2,47.3l4.6-1c0.7-0.2,1.4-0.4,2.1-0.6
	c1.2-0.3,2.1-0.5,2.5-0.5c1.2-0.3,2-0.5,2.3-0.6s0.5-0.3,0.5-0.6c-0.1-0.7-0.4-1.4-0.9-1.9c-0.6-1-1.5-1.8-2.4-2.5
	c-1.1-0.8-2.4-1.2-3.7-1.1c-1.7,0-3.3,1.1-3.8,2.8C421.8,43.2,421.3,45.2,421.2,47.3L421.2,47.3z"/>
<path class="st0" d="M441.5,62.8l-0.1-1c1-0.1,1.9-0.4,2.8-0.7c0.5-0.2,0.9-0.5,1.2-0.9c0.2-0.4,0.3-0.9,0.4-1.3
	c0.2-1.6,0.3-3.2,0.4-4.8c0.1-1.9,0.1-3.8,0.1-5.7c0-1.8-0.1-3.7-0.3-5.5c0-0.8-0.5-1.5-1.1-1.9c-1-0.4-2.1-0.6-3.2-0.7
	c0-0.2,0-0.5-0.1-0.7c1.4-0.4,2.8-0.9,4.1-1.5c0.9-0.4,1.8-0.8,2.7-1.3c0.5-0.3,1-0.5,1.6-0.7c0.4,0,0.6,0.3,0.7,1
	c0.1,1.1,0.2,2.3,0.1,3.4c2-1.2,4.2-2.2,6.4-3.1c1.5-0.6,3.2-0.9,4.8-0.9c2.3,0,4,0.5,5,1.5s1.7,2.3,1.9,3.7
	c0.3,1.9,0.4,3.7,0.4,5.6v8.4c0,3.3,0.2,5.1,0.5,5.4c0.6,0.3,1.2,0.5,1.8,0.6c1,0.2,1.6,0.4,1.8,0.5l0.1,1.1c-2-0.3-4.1-0.4-6.1-0.4
	s-4.4,0.1-7.1,0.4v-1c2.1-0.4,3.5-1.1,4-2c0.5-1.6,0.7-3.3,0.7-4.9c0.1-2.5,0.2-4.5,0.2-5.8c0-1.7-0.1-3.4-0.3-5.1
	c-0.1-1.3-0.6-2.4-1.5-3.4c-1-1-2.3-1.5-3.7-1.4c-1.2,0.1-2.3,0.2-3.4,0.5c-1.9,0.4-3.7,1.1-5.4,2.1l-0.2,9.4c0,4,0,6.6,0.1,8
	c0,0.4,0.1,0.9,0.3,1.3c0.3,0.4,0.7,0.6,1.2,0.8c1,0.3,2.1,0.5,3.1,0.6l-0.1,1.1l-2.2-0.2c-1-0.1-2.2-0.1-3.7-0.2h-7.9L441.5,62.8
	L441.5,62.8z"/>
<path class="st0" d="M476.1,55.3l1.2,0.1c0.2,0.8,0.6,1.6,1.1,2.2c0.9,1.1,1.9,2,3.1,2.7c1.3,0.8,2.7,1.2,4.2,1.2
	c1.1,0,2.3-0.2,3.3-0.7c1.1-0.5,1.7-1.5,1.7-3.1c0.1-1.5-0.6-3-1.7-4c-1.2-1-2.5-1.9-3.9-2.6l-2.7-1.2c-1.4-0.7-2.6-1.5-3.7-2.5
	c-0.9-0.9-1.4-2.1-1.4-3.4c0-1.2,0.5-2.4,1.2-3.4c0.9-1.3,2-2.3,3.4-3c1.5-0.8,3.3-1.2,5-1.2c1.9,0.1,3.8,0.2,5.7,0.5l1.2,6h-1.2
	c-0.3-0.9-0.8-1.7-1.5-2.3c-0.8-0.8-1.7-1.4-2.7-1.9c-0.8-0.5-1.7-0.7-2.6-0.8c-1.1,0-2.2,0.4-3,1.2s-1.2,1.9-1.2,3
	c0,0.9,0.3,1.7,0.9,2.3c1,0.8,2.1,1.5,3.2,2l2.2,1c1.8,0.8,3.5,1.9,5,3.2c1.4,1.3,2.2,3.2,2.1,5.2c0,0.9-0.2,1.8-0.5,2.6
	s-0.8,1.5-1.5,2c-1.5,1-3.2,1.9-4.9,2.5c-1.3,0.4-2.6,0.5-3.9,0.5c-0.7,0-1.3-0.1-2-0.2c-0.9-0.1-1.5-0.2-1.8-0.3s-1-0.2-1.8-0.5
	l-1.7-0.5c0.2-0.7,0.2-1.3,0.3-2c0-0.8-0.1-1.6-0.3-2.4C476.6,56.8,476.4,56.1,476.1,55.3z"/>
</svg>
